# xmcd
#
# Track frame offsets: 
#        150
#        23899
#        47695
#        69680
#        96840
#        122330
#        152768
#        172078
#
# Disc length: 2647 seconds
#
# Revision: 4
# Processed by: cddbd v1.5.2PL0 Copyright (c) Steve Scherf et al.
# Submitted via: ExactAudioCopy v0.99pb5
#
DISCID=640a5508
DTITLE=Various Artist - Funkymix 104
DYEAR=2007
DGENRE=Hip-Hop
TTITLE0=Chris Brown - Poppin (Great Scott Remix) (Funkymix)
TTITLE1=Lumidee Feat Tony Sunshine - Shes Like The Wind (Funkymix)
TTITLE2=Pretty Ricky - On The Hotline (Funkymix)
TTITLE3=Mims - This Is Why I'm Hot (Funkymix)
TTITLE4=Akon - Don't Matter (Funkymix)
TTITLE5=Lil Boosie Feat Yung Joc - Zoom (Funkymix)
TTITLE6=Fantasia Feat Big Boi - Hood Boy (Funkymix)
TTITLE7=Ying Yang Twins Feat Wyclef - Dangerous (Funkymix)
EXTD=
EXTT0=
EXTT1=
EXTT2=
EXTT3=
EXTT4=
EXTT5=
EXTT6=
EXTT7=
PLAYORDER=
